<?xml version="1.0" encoding="UTF-8"?>
<svg xmlns="http://www.w3.org/2000/svg" viewBox="0 0 1920 1630.88">
  <defs>
    <style>
      .cls-1 {
        fill: #b34b26;
      }

      .cls-2 {
        fill: #ed217a;
      }

      .cls-3 {
        fill: #ffc92b;
      }

      .cls-4 {
        fill: #f27ba9;
      }

      .cls-5 {
        fill: #151231;
      }

      .cls-6 {
        fill: #402311;
      }

      .cls-7 {
        fill: #272360;
      }
    </style>
  </defs>
  <g id="Layer_1" data-name="Layer 1">
    <rect class="cls-4" y="38.88" width="1920" height="1080"/>
  </g>
  <g id="FACE">
    <g>
      <path class="cls-2" d="M1328.41,95.41c3.76,1.28-7.37-.47-11.34-.4s-3.63,20.06-7.61,20.13-4.32-19.93-8.29-19.86-3.63,20.06-7.61,20.13-4.32-19.93-8.29-19.86-3.63,20.06-7.61,20.13-4.32-19.93-8.29-19.86-3.63,20.06-7.61,20.13-4.32-19.93-8.29-19.86-3.63,20.07-7.61,20.13-4.32-19.93-8.29-19.86-3.64,20.07-7.61,20.13-4.03-19.81-8.01-19.86c-17.26-.44-32.74,21.16-50.22,24.97s-39.51-9.88-56.04-2.86c-15.81,6.71-22.3,32.57-37.56,41.9-14.74,9.01-40.58,2.78-54.49,13.83s-13.52,37.47-26.05,49.87c-12.47,12.34-39.08,11.92-50.17,25.45-11.21,13.68-5.54,39.69-15.04,54.2-9.77,14.93-35.88,20.28-43.52,35.68-8,16.14,3.73,39.97-1.54,56.15-5.64,17.29-29.04,30.13-31.11,46.89-2.24,18.09,17.55,35.47,20.02,52.22,2.6,17.64-10.67,40.65-2.18,55.97,8.18,14.79,37.45,20.14,51.73,31.97,7.06,20.1-17.01,25.59-14.64,46.76,2.37,21.17,22.24,18.95,24.61,40.12,2.37,21.17-17.51,23.39-15.14,44.56,2.37,21.17,22.24,18.95,24.61,40.12s-17.51,23.39-15.14,44.57,22.24,18.95,24.61,40.12c2.37,21.17-17.51,23.39-15.14,44.56,2.37,21.17,22.24,18.95,24.61,40.12,2.37,21.17-17.51,23.39-15.14,44.56,2.37,21.17,22.24,18.95,24.61,40.12s-17.51,23.39-15.14,44.57c2.37,21.17,22.24,18.95,24.61,40.13,2.37,21.17,18.33,42.95-1.15,34.32-36.79-16.31-37.1-15.9-62.35-47.22-25.26-31.32-9.69-43.88-34.95-75.2-25.26-31.32-40.83-18.77-66.09-50.09-25.26-31.32-9.69-43.88-34.95-75.2-25.26-31.32-40.83-18.77-66.09-50.09-25.26-31.32-9.69-43.88-34.95-75.2-25.26-31.32-40.83-18.77-66.09-50.09-25.26-31.32-9.69-43.88-34.96-75.2s-40.83-18.77-66.09-50.09c-25.26-31.32-9.69-43.88-34.96-75.2s-40.83-18.77-66.09-50.1c-25.26-31.33-9.7-43.88-34.96-75.21-25.26-31.33-66.12-15.65-68.3-55.84-1.4-25.96,37.62-4.02,60.52-16.31,22.9-12.29,13.45-29.91,36.35-42.21,22.91-12.29,32.36,5.33,55.27-6.96,22.91-12.29,13.45-29.92,36.36-42.21s32.36,5.33,55.27-6.96,13.45-29.92,36.35-42.21c22.91-12.29,32.36,5.33,55.27-6.96s13.45-29.91,36.35-42.21,32.36,5.33,55.27-6.96,13.45-29.92,36.36-42.21c22.91-12.29,32.36,5.33,55.27-6.96s13.45-29.92,36.36-42.21,27.25-.5,52.66-6c15.83-3.43,16.02-15.54,31.73-11.61s10.85,23.33,26.56,27.27,20.57-15.47,36.28-11.54c15.71,3.93,10.85,23.33,26.57,27.27,15.71,3.93,20.57-15.47,36.28-11.53s10.85,23.33,26.56,27.27c15.71,3.93,20.57-15.47,36.28-11.54,15.71,3.93,10.85,23.33,26.57,27.27,15.71,3.93,20.57-15.47,36.28-11.53,15.71,3.93,10.86,23.33,26.57,27.27s20.57-15.47,36.28-11.53,12.6,27.23,28.79,27.57c17.62.36,19.53-16.82,34.86-11.6Z"/>
      <path class="cls-7" d="M1216.81,29.91c3.8.31-7.02,1.25-10.71,2.21s1.35,20.32-2.34,21.28-8.73-18.39-12.42-17.43,1.35,20.32-2.34,21.28-8.73-18.39-12.42-17.43,1.35,20.32-2.34,21.28-8.73-18.39-12.42-17.43,1.35,20.32-2.34,21.28c-3.69.96-8.73-18.39-12.43-17.43s1.35,20.32-2.35,21.28-8.73-18.39-12.43-17.43c-3.7.96,1.35,20.32-2.35,21.28-3.7.96-8.44-18.35-12.16-17.5-15.94,3.46-25.03,27.72-40.22,34.94-14.62,6.96-38.99-1.61-52.66,8.3-13.13,9.52-12.91,35.52-24.94,47.28-11.67,11.4-37.57,10.35-47.99,23.41s-3.57,37.95-12.43,51.98-34.36,18.73-41.62,33.51,4.51,38.06-1.05,53.41-29.6,26.13-33.19,41.9c-3.78,16.57,13.4,35.94,12.22,51.93-1.26,17.1-20.87,34.22-18.87,50.01,2.15,17.02,25.4,27.89,31.71,42.59,6.6,15.37-.8,40.16,10.76,52.08,11.03,11.37,39.87,8.39,55.8,15.79,11.18,16.51-10.46,27.81-3.31,46.42s25.82,11.44,32.98,30.05c7.15,18.61-11.52,25.79-4.36,44.4s25.82,11.44,32.98,30.06c7.15,18.62-11.51,25.79-4.36,44.41,7.15,18.62,25.82,11.44,32.98,30.06,7.15,18.61-11.52,25.79-4.36,44.4,7.15,18.62,25.82,11.44,32.98,30.06,7.15,18.62-11.52,25.79-4.36,44.41,7.15,18.62,25.82,11.44,32.98,30.06,7.15,18.62-11.51,25.79-4.36,44.41,7.15,18.62,25.82,11.44,32.98,30.06,7.15,18.62,26.3,34.27,6.64,30.96-37.74-6.36-38.45-4.68-69.33-27.3-30.88-22.61-19.07-38.75-49.95-61.36-30.88-22.61-42.7-6.48-73.58-29.09-30.88-22.62-19.07-38.75-49.95-61.37s-42.7-6.48-73.59-29.09c-30.88-22.61-19.07-38.75-49.95-61.37s-42.7-6.48-73.59-29.1-19.07-38.75-49.95-61.37c-30.88-22.61-42.7-6.48-73.58-29.09-30.89-22.62-19.07-38.75-49.95-61.37-30.89-22.62-42.7-6.48-73.59-29.1-30.89-22.62-19.07-38.75-49.96-61.37s-65.6,2.35-77.21-34.13c-7.48-23.5,34.64-11.84,53.14-28.14s5.27-31.31,23.77-47.62c18.5-16.31,31.72-1.3,50.22-17.61s5.27-31.31,23.77-47.62,31.73-1.3,50.23-17.61c18.5-16.31,5.27-31.31,23.77-47.62s31.72-1.3,50.22-17.61,5.27-31.31,23.77-47.62c18.5-16.31,31.73-1.3,50.23-17.61,18.5-16.31,5.28-31.31,23.78-47.62,18.5-16.31,31.73-1.3,50.23-17.61s5.28-31.31,23.78-47.62,25.69-5.45,47.94-16.1c14.05-6.72,11.26-19.02,26.83-19.02s15.58,20,31.15,20,15.58-20,31.15-20,15.58,20,31.15,20,15.58-20,31.15-20,15.57,20,31.15,20,15.58-20,31.15-20,15.58,20,31.15,20,15.58-20,31.15-20,15.58,20,31.16,20,15.58-20,31.16-20,18.29,23.31,33.45,19.73c16.57-3.91,14.14-20.96,29.67-19.7Z"/>
      <path class="cls-5" d="M628,342.88c113.3-19.11,169.95,221.28,355,257,167.93,32.41,345.77-122.23,492-298,92.11,217.5,85.51,454.84-38,609-232.76,290.52-810.11,197.51-945-66-95.11-185.79,16.68-481.88,136-502Z"/>
    </g>
    <circle class="cls-1" cx="1006" cy="521.88" r="149"/>
    <polygon class="cls-1" points="1121 982.88 891 982.88 940.25 633.88 1064.47 634.89 1121 982.88"/>
    <path class="cls-6" d="M1038.21,469.29c-1.38.25-2.7-.76-2.74-2.16-.14-4.49-3.26-10.07,3.54-14.26,9.93-6.11,28.42-7.37,45-6,6,.5,10.92,3.83,18.83,7.11,2.15.89,1.82,4.04-.47,4.45-22.63,4-40.75,6.61-64.15,10.86Z"/>
    <path class="cls-6" d="M957.1,469.64c1.38.25,2.7-.76,2.74-2.16.14-4.49,3.26-10.07-3.54-14.26-9.93-6.11-28.42-7.37-45-6-6,.5-10.92,3.83-18.83,7.11-2.15.89-1.82,4.04.47,4.45,22.63,4,40.75,6.61,64.15,10.86Z"/>
    <ellipse class="cls-1" cx="844" cy="528.88" rx="21" ry="50" transform="translate(-65.33 122.48) rotate(-7.99)"/>
    <ellipse class="cls-1" cx="1162.48" cy="528.88" rx="50" ry="21" transform="translate(477.12 1606.54) rotate(-82.01)"/>
    <path class="cls-3" d="M852,545.88c-.63,30.26-1.26,60.53-1.89,90.79-23.31-5.11-39.12-26.57-37.2-49.18,1.74-20.58,17.81-37.97,39.09-41.61Z"/>
    <path class="cls-3" d="M1155.25,545.48c.63,30.26,1.26,60.53,1.89,90.79,23.31-5.11,39.12-26.57,37.2-49.18-1.74-20.58-17.81-37.97-39.09-41.61Z"/>
    <path class="cls-7" d="M1518,1273.88c0,197.17-227.89,357-509,357s-509-159.83-509-357c0-170.76,170.93-313.51,399.32-348.69l10.68-79.31h187l13.52,78.1c232.47,33,407.48,177.11,407.48,349.9Z"/>
  </g>
</svg>